<svg id="图层_1" data-name="图层 1" xmlns="http://www.w3.org/2000/svg" viewBox="0 0 1379 1655"><defs><style>.cls-1{fill:#fff;}</style></defs><title>画板 1</title><ellipse cx="606.06" cy="634.46" rx="36.23" ry="42.96"/><ellipse cx="864" cy="642.16" rx="36.23" ry="42.96"/><rect x="517.01" y="756.92" width="88.44" height="20.52" rx="10.02"/><rect x="486.3" y="800.52" width="88.44" height="20.52" rx="10.02"/><rect x="517.01" y="844.11" width="88.44" height="20.52" rx="10.02"/><rect x="864.62" y="756.92" width="88.44" height="20.52" rx="10.02"/><rect x="908.84" y="800.52" width="67.56" height="20.52" rx="10.02"/><rect x="865.85" y="844.11" width="110.55" height="20.52" rx="10.02"/><rect x="865.85" y="1121.08" width="88.44" height="20.52" rx="10.02"/><rect x="910.07" y="1164.68" width="67.56" height="20.52" rx="10.02"/><rect x="867.08" y="1208.28" width="110.55" height="20.52" rx="10.02"/><path d="M702.48,667.16h76.16s7.37,1.28,3.68,10.26S743,714.6,743,714.6v18c1.46,2.41,7.58,11.89,19.65,15.38,2,.57,16.08,4.39,28.25-5.13,9.6-7.5,14.3-20.4,12.28-33.33,0,0,7.42-6.89,11.45-4.44a5.27,5.27,0,0,1,2.07,3.15c4.85,17-3.69,26.93-3.69,26.93-4.2,14.48-18.83,25-36.85,25.65-12.17.42-15.68,3.62-25.79-5.13a93.56,93.56,0,0,1-16-17.95,42,42,0,0,1-11.06,19.23c-9.88,9.59-25.28,14.12-39.3,9-16.93-6.22-22.83-23.22-24.57-28.21A54.14,54.14,0,0,1,657,713.32s5.52-12.18,9.21-7.05.61.64.61.64l3.07,17.31c7.53,13.36,8.78,15.45,11.06,17.95,3,3.26,9,9.84,17.19,10.26,13,.66,23.57-14,24-14.74l6.75-8.34V717.81L692,685.75s-11-16.67,0-18,11.06,0,11.06,0"/><path d="M486.92,916.56V425.45s4.91-24.36,17.19-26.92,39.31,37.18,39.31,37.18L587.64,496h296l70-88.48s19.65-16.67,27,0,4.92,180.8,4.92,180.8v529.58l-6.14,229.52S977,1391,948.76,1391s-533.09-5.13-533.09-5.13c-17-3.49-80.29-18.7-121.6-79.5-47.45-69.85-44.52-168.44,3.69-234.65C341.22,1012,405.59,1000.47,423,997.34c14.93-2.67,107.43-19.25,165.82,44.88,35,38.42,40.37,86.73,43,110.28,2.57,23,6.28,56.32-11.06,91-5.59,11.19-24.92,49.89-62.64,56.42-26.08,4.51-49.43-8.34-52.82-10.26a85.68,85.68,0,0,1-18.42-14.1s-4.63,13.1-17.75,20.09c-6.15,3.27-11.85,4-17.88,4.27-16.49.75-34.59,1.56-49.13-6.41-26.14-14.35-30.87-51.72-34.39-79.5-3.42-27-7-55.22,9.83-82.07,3.45-5.5,23.65-37.74,60.18-38.47,32.78-.64,53.59,24.56,56.51,28.21,0,0,0-25.64,8.59-25.64s22.11-6.41,25.8,9,0,134.64,0,134.64,0,9,3.68,16.67c4.71,9.83,18.3,10.91,25.8,9,20.66-5.34,26.73-45.84,29.48-64.12,3.23-21.52,7.84-52.25-7.37-87.19-16.69-38.35-46.11-56.17-55.28-61.55-37.35-21.9-73-18.09-84.75-16.67-11.28,1.38-43.87,5.8-73.7,32.06-39.2,34.51-45.65,82.1-47.9,98.73-2.37,17.51-8.68,64.06,19.65,109,27.45,43.54,69.39,57,81.07,60.26L925.42,1341s8.6,6.41,12.28-7.69,3.69-382.12,3.69-382.12l1.23-457.77s2.45-10.25-4.92-7.69-35.62,53.86-35.62,53.86H584l-44.22-47.45s-12.28-15.39-11.05-3.85,2.45,448.8,2.45,448.8,0,29.49-9.82,29.49-23.34,1.28-27-11.54S486.92,916.56,486.92,916.56Z"/><ellipse class="cls-1" cx="443.31" cy="1198.66" rx="39.31" ry="67.32"/></svg>