<svg id="图层_1" data-name="图层 1" xmlns="http://www.w3.org/2000/svg" viewBox="0 0 1379 1655"><defs><style>.cls-1,.cls-2{fill:#fff;}.cls-2{font-size:118.82px;font-family:BritannicBold, Britannic Bold;}</style></defs><title>画板 1</title><ellipse cx="332.72" cy="721.24" rx="22.17" ry="26.54"/><ellipse cx="490.54" cy="725.99" rx="22.17" ry="26.54"/><rect x="278.24" y="796.89" width="54.11" height="12.67" rx="6.16"/><rect x="259.45" y="823.82" width="54.11" height="12.67" rx="6.16"/><rect x="278.24" y="850.75" width="54.11" height="12.67" rx="6.16"/><rect x="490.91" y="796.89" width="54.11" height="12.67" rx="6.16"/><rect x="517.97" y="823.82" width="41.33" height="12.67" rx="6.16"/><rect x="491.66" y="850.75" width="67.63" height="12.67" rx="6.16"/><rect x="491.66" y="1021.86" width="54.11" height="12.67" rx="6.16"/><rect x="518.72" y="1048.79" width="41.33" height="12.67" rx="6.16"/><rect x="492.42" y="1075.72" width="67.63" height="12.67" rx="6.16"/><path d="M391.72,741.44h46.59s4.51.79,2.25,6.33-24.05,23-24.05,23v11.09a21.53,21.53,0,0,0,12,9.5c1.2.35,9.84,2.71,17.28-3.17,5.87-4.63,8.75-12.6,7.52-20.59,0,0,4.54-4.25,7-2.75a3.23,3.23,0,0,1,1.26,1.95c3,10.5-2.25,16.64-2.25,16.64-2.57,8.94-11.52,15.45-22.54,15.84-7.45.27-9.6,2.24-15.79-3.17A57.4,57.4,0,0,1,411.25,785a26,26,0,0,1-6.76,11.89c-6.05,5.92-15.47,8.72-24.05,5.54-10.36-3.84-14-14.34-15-17.43a33.74,33.74,0,0,1-1.5-15s3.38-7.52,5.64-4.35.37.39.37.39l1.88,10.7c4.6,8.25,5.37,9.54,6.76,11.09,1.82,2,5.49,6.08,10.53,6.33,8,.41,14.41-8.67,14.65-9.11l4.13-5.14v-7.13l-22.54-19.81s-6.77-10.3,0-11.09,6.76,0,6.76,0"/><path d="M259.83,895.51V592.12s3-15,10.52-16.64,24,23,24,23l27.05,37.23H502.56L545.4,581s12-10.3,16.53,0,3,111.69,3,111.69v327.16l-3.75,141.79s-1.51,26.93-18.79,26.93-326.15-3.16-326.15-3.16c-10.38-2.16-49.12-11.56-74.39-49.12-29-43.15-27.24-104.06,2.25-145,26.59-36.88,66-44,76.65-46,9.13-1.65,65.73-11.89,101.45,27.73,21.4,23.73,24.7,53.58,26.3,68.12,1.58,14.24,3.85,34.8-6.76,56.25-3.42,6.91-15.24,30.82-38.32,34.85-16,2.79-30.25-5.15-32.32-6.34a52.13,52.13,0,0,1-11.27-8.71A24.84,24.84,0,0,1,249,1129.72a24,24,0,0,1-10.93,2.64c-10.09.46-21.17,1-30.06-4-16-8.86-18.89-32-21-49.11-2.09-16.68-4.27-34.12,6-50.7,2.11-3.4,14.47-23.32,36.82-23.76,20-.41,32.78,15.17,34.57,17.42,0,0,0-15.84,5.26-15.84s13.53-4,15.78,5.54,0,83.18,0,83.18a27.42,27.42,0,0,0,2.25,10.3c2.88,6.07,11.2,6.74,15.79,5.54,12.64-3.29,16.35-28.31,18-39.6,2-13.3,4.8-32.28-4.51-53.87a81.42,81.42,0,0,0-33.81-38c-22.86-13.53-44.69-11.18-51.86-10.3A81.61,81.61,0,0,0,186.18,989c-24,21.32-27.93,50.72-29.3,61-1.46,10.81-5.31,39.57,12,67.33,16.79,26.9,42.45,35.19,49.6,37.23l309.61,3.17s5.26,4,7.52-4.75,2.25-236.06,2.25-236.06l.75-282.8s1.5-6.34-3-4.75-21.8,33.27-21.8,33.27H319.2l-27.06-29.31s-7.51-9.51-6.76-2.38,1.5,277.25,1.5,277.25,0,18.22-6,18.22-14.28.79-16.53-7.13S259.83,895.51,259.83,895.51Z"/><ellipse class="cls-1" cx="233.15" cy="1069.78" rx="24.05" ry="41.59"/><rect x="598.38" y="924.42" width="620.73" height="264.58" rx="28.86"/><text class="cls-2" transform="translate(702.11 1092.61) scale(0.95 1)">ChatCat</text></svg>