<svg id="图层_1" data-name="图层 1" xmlns="http://www.w3.org/2000/svg" viewBox="0 0 612 792"><defs><style>.cls-1{fill:#fff;}.cls-2{fill:#ffc1cc;}</style></defs><title>画板 1</title><path class="cls-1" d="M195.62,169.48c20.29-9.52,31.77-20.28,38.29-25.28,24.48-18.76,64.81-22.12,95.75-12.25,42.11,13.42,62,49.78,66.64,59a107,107,0,0,1,21.44-4.59c29.94-3.25,53.28,7.15,64.35,12.25,9.56,4.41,75.89,35,84.25,102.64,5.24,42.39-15.25,75.37-23,86.55,4.51,5,11,12.27,18.38,21.45,12.52,15.55,25.67,31.87,31.41,44.43,13.94,30.5-.67,72-19.15,96.51-26.54,35.23-73.37,51.88-121,44.42-1.81,11.28-6,25.57-16.19,38.3-48.89,60.79-188.11,25.24-268-15.32-40.64-20.64-89.46-45.43-102.64-93.44-10.27-37.43,0-93.09.77-97.28a272.91,272.91,0,0,1,8.42-32.94,152,152,0,0,1-20.68-34.54c-5.83-13.55-19.77-46-10-83.41,9-34.21,33-54.38,39.83-59.75,22.35-17.5,53.12-27.12,88.85-38.3A161,161,0,0,0,195.62,169.48Z"/><ellipse class="cls-2" cx="146.97" cy="306.9" rx="70.09" ry="42.97" transform="translate(-170.75 428.72) rotate(-85.39)"/><ellipse class="cls-2" cx="436.79" cy="341.47" rx="79.28" ry="56.28" transform="translate(-77.33 549.01) rotate(-60)"/><ellipse class="cls-2" cx="474.81" cy="488.18" rx="61.59" ry="44.85" transform="translate(-191.08 345.5) rotate(-33.7)"/><ellipse class="cls-2" cx="281.4" cy="259.48" rx="83.87" ry="56.68" transform="translate(-58.88 434.76) rotate(-69.93)"/><path class="cls-2" d="M122.09,413.82c15.42-21.67,35.64-30.66,52.85-38.3,38.41-17.06,72.23-16.31,78.89-16.09,19.42.66,55.06,1.86,86.55,26.81,30.33,24,39.27,56.21,47.49,85.79,9.6,34.55,17.51,63,2.3,91.15-19,35.12-59.62,43-63.57,43.66-20.94,3.71-36.8-1.48-67.41-11.49-28-9.16-47.45-20.24-62.81-29.11-34.29-19.79-54.43-31.42-71.23-55.91C116.69,498,104.21,479.25,106,454.41,107.41,434.79,117.05,420.89,122.09,413.82Z"/></svg>